<svg
  width="14px"
  height="14px"
  viewBox="0 0 14 14"
  version="1.1"
  xmlns="http://www.w3.org/2000/svg"
  xmlns:xlink="http://www.w3.org/1999/xlink"
>
    <title>Icon/16/external-link-2</title>
    <defs>
        <path
      d="M11,4.9355 C11.552,4.9355 12,5.3835 12,5.9355 C12,6.4875 11.552,6.9355 11,6.9355 L7,6.9355 L7,14.9355 L15,14.9355 L15,10.9355 C15,10.3835 15.448,9.9355 16,9.9355 C16.552,9.9355 17,10.3835 17,10.9355 L17,15.9355 C17,16.4875 16.552,16.9355 16,16.9355 L6,16.9355 C5.448,16.9355 5,16.4875 5,15.9355 L5,5.9355 C5,5.3835 5.448,4.9355 6,4.9355 L11,4.9355 Z M17.896,3 C18.448,3 18.896,3.448 18.896,4 L18.896,4 L18.896,8 C18.896,8.552 18.448,9 17.896,9 C17.344,9 16.896,8.552 16.896,8 L16.896,8 L16.896,6.414 L11.882,11.428 C11.687,11.623 11.431,11.721 11.175,11.721 C10.919,11.721 10.664,11.623 10.468,11.428 C10.078,11.037 10.078,10.404 10.468,10.014 L10.468,10.014 L15.482,5 L13.896,5 C13.344,5 12.896,4.552 12.896,4 C12.896,3.448 13.344,3 13.896,3 L13.896,3 Z"
      id="path-1"
    />
    </defs>
    <g id="Navigation---Tabs---WIP" stroke="none" stroke-width="1" fill="none" fill-rule="evenodd">
        <g id="Group" transform="translate(-5.000000, -3.000000)">
            <mask id="mask-2" fill="currentColor">
                <use xlink:href="#path-1" />
            </mask>
            <use id="Fill-4" fill="currentColor" xlink:href="#path-1" />
        </g>
    </g>
</svg>
