<svg viewBox="0 0 24 24" xmlns="http://www.w3.org/2000/svg"><path d="m15.74 9.74a6 6 0 0 1 -1.74 2.63c-.44.44-1 1-1 1.31a1 1 0 1 1 -1.91 0 3.83 3.83 0 0 1 1.47-2.59v-.06a4.59 4.59 0 0 0 1.29-1.77 1.46 1.46 0 0 0 -.15-1.26 2 2 0 0 0 -1.7-.59 1.7 1.7 0 0 0 -1.67.93 2.73 2.73 0 0 0 -.27 1 .93.93 0 0 1 -.95.93.94.94 0 0 1 -1-.94 4.69 4.69 0 0 1 .47-1.86 3.52 3.52 0 0 1 3.39-2 3.71 3.71 0 0 1 3.15 1.35 3.25 3.25 0 0 1 .62 2.92zm-3.59 5.73a1.25 1.25 0 1 0 1.25 1.25 1.25 1.25 0 0 0 -1.25-1.25zm7 3.34a10 10 0 1 0 -7.15 2.92 10 10 0 0 0 7.1-2.92zm-1.46-12.73a8 8 0 1 1 -5.69-2.34 8 8 0 0 1 5.69 2.34z"/><path d="m0 0h24v24h-24z" fill="none"/></svg>