<?xml version="1.0" encoding="UTF-8"?>
<svg width="23px" height="16px" viewBox="0 0 23 16" version="1.1" xmlns="http://www.w3.org/2000/svg" xmlns:xlink="http://www.w3.org/1999/xlink">
    <title>Icon/24/enclosed-add</title>
    <defs>
        <path d="M12.0646774,4 C15.6582255,4 18.5001972,5.44592812 20.6299402,7.83448868 C21.8982726,9.25695555 22.6570353,10.6786836 23.0071421,11.6656943 L23.1257251,12 L23.0071421,12.3343057 C22.6570353,13.3213164 21.8982726,14.7430444 20.6299402,16.1655113 C18.5001972,18.5540719 15.6582255,20 12.0646774,20 C8.50385625,20 5.67044546,18.5544876 3.52952388,16.16773 C2.25548666,14.7473986 1.4852793,13.3279731 1.12542582,12.3432294 L1,12 L1.12542582,11.6567706 C1.4852793,10.6720269 2.25548666,9.25260136 3.52952388,7.83227001 C5.67044546,5.44551239 8.50385625,4 12.0646774,4 Z M12.0646774,6 C9.11374862,6 6.80178441,7.17948761 5.01833099,9.16772999 C4.38717785,9.87135669 3.86939978,10.6279313 3.45958735,11.3831802 C3.32960224,11.6227315 3.22635065,11.8311939 3.14868518,12 C3.22635065,12.1688061 3.32960224,12.3772685 3.45958735,12.6168198 C3.86939978,13.3720687 4.38717785,14.1286433 5.01833099,14.83227 C6.80178441,16.8205124 9.11374862,18 12.0646774,18 C15.0485044,18 17.3659701,16.8209281 19.1371647,14.8344887 C19.7634795,14.1320608 20.2746896,13.3768064 20.6770335,12.6229165 C20.8065369,12.3802601 20.9087068,12.169633 20.9848795,12 C20.9087068,11.830367 20.8065369,11.6197399 20.6770335,11.3770835 C20.2746896,10.6231936 19.7634795,9.86793923 19.1371647,9.16551132 C17.3659701,7.17907188 15.0485044,6 12.0646774,6 Z M12.0646774,8 C14.2739622,8 16.0646774,9.79071525 16.0646774,12 C16.0646774,14.2092847 14.2739622,16 12.0646774,16 C9.85539269,16 8.06467744,14.2092847 8.06467744,12 C8.06467744,9.79071525 9.85539269,8 12.0646774,8 Z M12.0646774,10 C10.9599622,10 10.0646774,10.8952847 10.0646774,12 C10.0646774,13.1047153 10.9599622,14 12.0646774,14 C13.1693927,14 14.0646774,13.1047153 14.0646774,12 C14.0646774,10.8952847 13.1693927,10 12.0646774,10 Z" id="path-1"></path>
    </defs>
    <g id="KEY-SCREENS" stroke="none" stroke-width="1" fill="none" fill-rule="evenodd">
        <g id="08-Temporary-password---all-conditions-met" transform="translate(-897.000000, -500.000000)">
            <g id="Group" transform="translate(896.000000, 496.000000)">
                <mask id="mask-2" fill="white">
                    <use xlink:href="#path-1"></use>
                </mask>
                <use id="Combined-Shape" fill="#929BA9" fill-rule="nonzero" xlink:href="#path-1"></use>
                <g mask="url(#mask-2)" fill="#0075BE" id="Icon/Colour/BMO-Accessible-Blue">
                    <g>
                        <rect x="0" y="0" width="24" height="24"></rect>
                    </g>
                </g>
            </g>
        </g>
    </g>
</svg>